<svg width="100" height="100" viewBox="0 0 100 100" fill="none" xmlns="http://www.w3.org/2000/svg">
<g clip-path="url(#clip0_124_57)">
<path d="M50 45.8333C55.5253 45.8333 60.8244 48.0283 64.7314 51.9353C68.6384 55.8423 70.8333 61.1413 70.8333 66.6667V91.6667H62.5V66.6667C62.5002 63.4783 61.282 60.4104 59.0946 58.0906C56.9073 55.7708 53.9162 54.3746 50.7333 54.1875L50 54.1667C46.8116 54.1665 43.7437 55.3847 41.4239 57.572C39.1041 59.7593 37.7079 62.7504 37.5208 65.9333L37.5 66.6667V91.6667H29.1666V66.6667C29.1666 61.1413 31.3616 55.8423 35.2686 51.9353C39.1756 48.0283 44.4746 45.8333 50 45.8333ZM22.9166 58.3333C24.0791 58.3333 25.2083 58.4708 26.2916 58.725C25.5792 60.8458 25.1574 63.0534 25.0375 65.2875L25 66.6667V67.025C24.521 66.8536 24.0229 66.7417 23.5166 66.6917L22.9166 66.6667C21.363 66.6667 19.865 67.2455 18.7149 68.2901C17.5648 69.3347 16.845 70.7702 16.6958 72.3167L16.6666 72.9167V91.6667H8.33331V72.9167C8.33331 69.0489 9.86977 65.3396 12.6047 62.6047C15.3396 59.8698 19.0489 58.3333 22.9166 58.3333ZM77.0833 58.3333C80.9511 58.3333 84.6604 59.8698 87.3953 62.6047C90.1302 65.3396 91.6666 69.0489 91.6666 72.9167V91.6667H83.3333V72.9167C83.3332 71.363 82.7545 69.865 81.7099 68.7149C80.6653 67.5648 79.2298 66.845 77.6833 66.6958L77.0833 66.6667C76.3541 66.6667 75.6541 66.7917 75 67.0208V66.6667C75 63.8917 74.55 61.225 73.7125 58.7333C74.8161 58.4662 75.9478 58.3319 77.0833 58.3333ZM22.9166 33.3333C25.6793 33.3333 28.3288 34.4308 30.2823 36.3843C32.2358 38.3378 33.3333 40.9873 33.3333 43.75C33.3333 46.5127 32.2358 49.1622 30.2823 51.1157C28.3288 53.0692 25.6793 54.1667 22.9166 54.1667C20.154 54.1667 17.5045 53.0692 15.551 51.1157C13.5974 49.1622 12.5 46.5127 12.5 43.75C12.5 40.9873 13.5974 38.3378 15.551 36.3843C17.5045 34.4308 20.154 33.3333 22.9166 33.3333ZM77.0833 33.3333C79.846 33.3333 82.4955 34.4308 84.449 36.3843C86.4025 38.3378 87.5 40.9873 87.5 43.75C87.5 46.5127 86.4025 49.1622 84.449 51.1157C82.4955 53.0692 79.846 54.1667 77.0833 54.1667C74.3206 54.1667 71.6711 53.0692 69.7176 51.1157C67.7641 49.1622 66.6666 46.5127 66.6666 43.75C66.6666 40.9873 67.7641 38.3378 69.7176 36.3843C71.6711 34.4308 74.3206 33.3333 77.0833 33.3333ZM22.9166 41.6667C22.3641 41.6667 21.8342 41.8862 21.4435 42.2769C21.0528 42.6676 20.8333 43.1975 20.8333 43.75C20.8333 44.3025 21.0528 44.8324 21.4435 45.2231C21.8342 45.6138 22.3641 45.8333 22.9166 45.8333C23.4692 45.8333 23.9991 45.6138 24.3898 45.2231C24.7805 44.8324 25 44.3025 25 43.75C25 43.1975 24.7805 42.6676 24.3898 42.2769C23.9991 41.8862 23.4692 41.6667 22.9166 41.6667ZM77.0833 41.6667C76.5308 41.6667 76.0009 41.8862 75.6102 42.2769C75.2195 42.6676 75 43.1975 75 43.75C75 44.3025 75.2195 44.8324 75.6102 45.2231C76.0009 45.6138 76.5308 45.8333 77.0833 45.8333C77.6358 45.8333 78.1658 45.6138 78.5565 45.2231C78.9472 44.8324 79.1666 44.3025 79.1666 43.75C79.1666 43.1975 78.9472 42.6676 78.5565 42.2769C78.1658 41.8862 77.6358 41.6667 77.0833 41.6667ZM50 8.33333C54.4203 8.33333 58.6595 10.0893 61.7851 13.2149C64.9107 16.3405 66.6666 20.5797 66.6666 25C66.6666 29.4203 64.9107 33.6595 61.7851 36.7851C58.6595 39.9107 54.4203 41.6667 50 41.6667C45.5797 41.6667 41.3405 39.9107 38.2149 36.7851C35.0893 33.6595 33.3333 29.4203 33.3333 25C33.3333 20.5797 35.0893 16.3405 38.2149 13.2149C41.3405 10.0893 45.5797 8.33333 50 8.33333ZM50 16.6667C47.7898 16.6667 45.6702 17.5446 44.1074 19.1074C42.5446 20.6702 41.6666 22.7899 41.6666 25C41.6666 27.2101 42.5446 29.3298 44.1074 30.8926C45.6702 32.4554 47.7898 33.3333 50 33.3333C52.2101 33.3333 54.3297 32.4554 55.8925 30.8926C57.4553 29.3298 58.3333 27.2101 58.3333 25C58.3333 22.7899 57.4553 20.6702 55.8925 19.1074C54.3297 17.5446 52.2101 16.6667 50 16.6667Z" fill="#B3B3B3"/>
</g>
<defs>
<clipPath id="clip0_124_57">
<rect width="100" height="100" fill="#B3B3B3"/>
</clipPath>
</defs>
</svg>
