<svg width="207" height="24" viewBox="0 0 207 24" fill="none" xmlns="http://www.w3.org/2000/svg">
<path d="M8.72 20.24C7.328 20.24 6.104 19.984 5.048 19.472C3.992 18.944 3.112 18.248 2.408 17.384C1.72 16.504 1.2 15.528 0.848 14.456C0.496 13.368 0.32 12.256 0.32 11.12C0.32 9.984 0.496 8.872 0.848 7.784C1.2 6.696 1.72 5.72 2.408 4.856C3.112 3.976 3.992 3.28 5.048 2.768C6.104 2.256 7.328 2 8.72 2C9.872 2 10.856 2.152 11.672 2.456C12.504 2.744 13.192 3.12 13.736 3.584C14.296 4.048 14.744 4.544 15.08 5.072C15.432 5.6 15.688 6.096 15.848 6.56C16.024 7.024 16.136 7.408 16.184 7.712C16.248 8 16.28 8.144 16.28 8.144H13.928C13.928 8.144 13.896 8.016 13.832 7.76C13.768 7.488 13.64 7.16 13.448 6.776C13.256 6.376 12.968 5.976 12.584 5.576C12.2 5.176 11.696 4.848 11.072 4.592C10.448 4.32 9.672 4.184 8.744 4.184C7.736 4.184 6.856 4.384 6.104 4.784C5.352 5.168 4.72 5.696 4.208 6.368C3.712 7.024 3.336 7.768 3.08 8.6C2.84 9.416 2.72 10.256 2.72 11.12C2.72 11.984 2.84 12.832 3.08 13.664C3.336 14.48 3.712 15.224 4.208 15.896C4.72 16.552 5.352 17.08 6.104 17.48C6.856 17.864 7.736 18.056 8.744 18.056C9.672 18.056 10.448 17.92 11.072 17.648C11.696 17.376 12.2 17.048 12.584 16.664C12.968 16.264 13.256 15.872 13.448 15.488C13.64 15.088 13.768 14.752 13.832 14.48C13.896 14.208 13.928 14.072 13.928 14.072H16.28C16.28 14.072 16.248 14.224 16.184 14.528C16.136 14.816 16.024 15.2 15.848 15.68C15.688 16.144 15.432 16.64 15.08 17.168C14.744 17.68 14.296 18.176 13.736 18.656C13.192 19.12 12.504 19.504 11.672 19.808C10.856 20.096 9.872 20.24 8.72 20.24ZM25.3134 20.24C23.9534 20.24 22.8094 19.928 21.8814 19.304C20.9534 18.664 20.2494 17.84 19.7694 16.832C19.2894 15.824 19.0494 14.76 19.0494 13.64C19.0494 12.504 19.2894 11.44 19.7694 10.448C20.2494 9.44 20.9534 8.624 21.8814 8C22.8094 7.36 23.9534 7.04 25.3134 7.04C26.6734 7.04 27.8174 7.36 28.7454 8C29.6734 8.624 30.3774 9.44 30.8574 10.448C31.3374 11.44 31.5774 12.504 31.5774 13.64C31.5774 14.76 31.3374 15.824 30.8574 16.832C30.3774 17.84 29.6734 18.664 28.7454 19.304C27.8174 19.928 26.6734 20.24 25.3134 20.24ZM25.3134 18.248C26.1774 18.248 26.8974 18.032 27.4734 17.6C28.0654 17.152 28.5054 16.576 28.7934 15.872C29.0974 15.168 29.2494 14.424 29.2494 13.64C29.2494 12.84 29.0974 12.096 28.7934 11.408C28.5054 10.704 28.0654 10.136 27.4734 9.704C26.8974 9.256 26.1774 9.032 25.3134 9.032C24.4654 9.032 23.7454 9.256 23.1534 9.704C22.5614 10.136 22.1134 10.704 21.8094 11.408C21.5214 12.096 21.3774 12.84 21.3774 13.64C21.3774 14.424 21.5214 15.168 21.8094 15.872C22.1134 16.576 22.5614 17.152 23.1534 17.6C23.7454 18.032 24.4654 18.248 25.3134 18.248ZM40.0906 20.24C39.1306 20.24 38.2906 20.056 37.5706 19.688C36.8506 19.304 36.2506 18.8 35.7706 18.176C35.2906 17.536 34.9306 16.824 34.6906 16.04C34.4506 15.256 34.3306 14.456 34.3306 13.64C34.3306 12.824 34.4506 12.024 34.6906 11.24C34.9306 10.456 35.2906 9.752 35.7706 9.128C36.2506 8.488 36.8506 7.984 37.5706 7.616C38.2906 7.232 39.1306 7.04 40.0906 7.04C40.8906 7.04 41.5626 7.168 42.1066 7.424C42.6506 7.68 43.0906 7.984 43.4266 8.336C43.7626 8.672 44.0186 8.992 44.1946 9.296H44.3386V1.76H46.6186V20H44.3386V17.984H44.1946C44.0186 18.288 43.7626 18.616 43.4266 18.968C43.0906 19.32 42.6506 19.624 42.1066 19.88C41.5626 20.12 40.8906 20.24 40.0906 20.24ZM40.4746 18.296C41.3226 18.296 42.0266 18.072 42.5866 17.624C43.1626 17.16 43.5866 16.576 43.8586 15.872C44.1466 15.152 44.2906 14.408 44.2906 13.64C44.2906 12.856 44.1466 12.112 43.8586 11.408C43.5866 10.704 43.1626 10.128 42.5866 9.68C42.0266 9.216 41.3226 8.984 40.4746 8.984C39.6266 8.984 38.9146 9.216 38.3386 9.68C37.7626 10.128 37.3306 10.704 37.0426 11.408C36.7706 12.112 36.6346 12.856 36.6346 13.64C36.6346 14.408 36.7706 15.152 37.0426 15.872C37.3306 16.576 37.7626 17.16 38.3386 17.624C38.9146 18.072 39.6266 18.296 40.4746 18.296ZM56.0109 20.24C54.9709 20.24 54.0669 20.056 53.2989 19.688C52.5469 19.304 51.9229 18.792 51.4269 18.152C50.9469 17.512 50.5869 16.808 50.3469 16.04C50.1069 15.256 49.9869 14.456 49.9869 13.64C49.9869 12.84 50.0989 12.048 50.3229 11.264C50.5629 10.48 50.9229 9.768 51.4029 9.128C51.8989 8.488 52.5149 7.984 53.2509 7.616C54.0029 7.232 54.8909 7.04 55.9149 7.04C57.0029 7.04 57.9629 7.288 58.7949 7.784C59.6269 8.28 60.2829 9.016 60.7629 9.992C61.2429 10.968 61.4829 12.192 61.4829 13.664V14.336H52.2909C52.3389 15.056 52.5069 15.72 52.7949 16.328C53.0989 16.92 53.5229 17.4 54.0669 17.768C54.6109 18.12 55.2589 18.296 56.0109 18.296C56.6669 18.296 57.1949 18.192 57.5949 17.984C58.0109 17.76 58.3389 17.504 58.5789 17.216C58.8189 16.928 58.9789 16.68 59.0589 16.472C59.1549 16.248 59.2029 16.136 59.2029 16.136H61.3389C61.3389 16.136 61.2989 16.28 61.2189 16.568C61.1389 16.84 60.9949 17.176 60.7869 17.576C60.5789 17.976 60.2749 18.384 59.8749 18.8C59.4749 19.2 58.9629 19.544 58.3389 19.832C57.7149 20.104 56.9389 20.24 56.0109 20.24ZM52.3149 12.56H59.2509C59.2189 11.728 59.0429 11.056 58.7229 10.544C58.4029 10.016 57.9949 9.624 57.4989 9.368C57.0029 9.112 56.4749 8.984 55.9149 8.984C54.9069 8.984 54.0829 9.312 53.4429 9.968C52.8029 10.608 52.4269 11.472 52.3149 12.56ZM75.5253 20.24C74.2133 20.24 73.2213 19.904 72.5493 19.232C71.8933 18.56 71.5653 17.616 71.5653 16.4V9.152H69.2853V7.28H71.5653V4.088H73.8453V7.28H76.9413V9.152H73.8453V16.4C73.8453 17.04 74.0213 17.512 74.3733 17.816C74.7253 18.104 75.2373 18.248 75.9093 18.248C76.2613 18.248 76.5973 18.224 76.9173 18.176C77.2373 18.128 77.3973 18.104 77.3973 18.104V20.048C77.3973 20.048 77.2133 20.08 76.8453 20.144C76.4773 20.208 76.0373 20.24 75.5253 20.24ZM85.9462 20.24C84.5862 20.24 83.4422 19.928 82.5142 19.304C81.5862 18.664 80.8822 17.84 80.4022 16.832C79.9222 15.824 79.6822 14.76 79.6822 13.64C79.6822 12.504 79.9222 11.44 80.4022 10.448C80.8822 9.44 81.5862 8.624 82.5142 8C83.4422 7.36 84.5862 7.04 85.9462 7.04C87.3062 7.04 88.4502 7.36 89.3782 8C90.3062 8.624 91.0102 9.44 91.4902 10.448C91.9702 11.44 92.2102 12.504 92.2102 13.64C92.2102 14.76 91.9702 15.824 91.4902 16.832C91.0102 17.84 90.3062 18.664 89.3782 19.304C88.4502 19.928 87.3062 20.24 85.9462 20.24ZM85.9462 18.248C86.8102 18.248 87.5302 18.032 88.1062 17.6C88.6982 17.152 89.1382 16.576 89.4262 15.872C89.7302 15.168 89.8822 14.424 89.8822 13.64C89.8822 12.84 89.7302 12.096 89.4262 11.408C89.1382 10.704 88.6982 10.136 88.1062 9.704C87.5302 9.256 86.8102 9.032 85.9462 9.032C85.0982 9.032 84.3782 9.256 83.7862 9.704C83.1942 10.136 82.7462 10.704 82.4422 11.408C82.1542 12.096 82.0102 12.84 82.0102 13.64C82.0102 14.424 82.1542 15.168 82.4422 15.872C82.7462 16.576 83.1942 17.152 83.7862 17.6C84.3782 18.032 85.0982 18.248 85.9462 18.248ZM95.3206 20V7.28H97.6006V9.128H97.7446C97.8566 8.936 98.0406 8.672 98.2966 8.336C98.5686 8 98.9526 7.704 99.4486 7.448C99.9446 7.176 100.569 7.04 101.321 7.04C102.249 7.04 103.041 7.256 103.697 7.688C104.353 8.104 104.849 8.672 105.185 9.392C105.537 10.112 105.713 10.92 105.713 11.816V20H103.433V11.96C103.433 11.112 103.193 10.408 102.713 9.848C102.249 9.288 101.569 9.008 100.673 9.008C99.9526 9.008 99.3686 9.192 98.9206 9.56C98.4726 9.912 98.1366 10.384 97.9126 10.976C97.7046 11.552 97.6006 12.168 97.6006 12.824V20H95.3206ZM127.346 20L133.61 2.24H136.562L142.85 20H140.354L138.866 15.752H131.33L129.842 20H127.346ZM132.05 13.64H138.146L135.098 4.928L132.05 13.64ZM150.273 20.24C149.298 20.24 148.49 20.104 147.85 19.832C147.226 19.56 146.73 19.224 146.362 18.824C145.994 18.408 145.722 18 145.546 17.6C145.37 17.184 145.258 16.84 145.21 16.568C145.162 16.296 145.138 16.16 145.138 16.16H147.442C147.442 16.16 147.466 16.272 147.514 16.496C147.578 16.704 147.698 16.952 147.874 17.24C148.066 17.512 148.354 17.76 148.738 17.984C149.138 18.192 149.666 18.296 150.322 18.296C151.074 18.296 151.658 18.12 152.074 17.768C152.49 17.4 152.698 16.952 152.698 16.424C152.698 15.96 152.53 15.592 152.194 15.32C151.874 15.048 151.41 14.84 150.802 14.696L149.074 14.288C148.434 14.128 147.834 13.912 147.274 13.64C146.714 13.368 146.258 13 145.906 12.536C145.57 12.056 145.402 11.464 145.402 10.76C145.402 9.672 145.81 8.784 146.626 8.096C147.442 7.392 148.506 7.04 149.818 7.04C150.698 7.04 151.426 7.168 152.002 7.424C152.578 7.664 153.034 7.968 153.37 8.336C153.722 8.704 153.978 9.072 154.138 9.44C154.314 9.808 154.426 10.12 154.474 10.376C154.522 10.616 154.546 10.736 154.546 10.736H152.338C152.338 10.736 152.314 10.648 152.266 10.472C152.218 10.28 152.106 10.072 151.93 9.848C151.77 9.608 151.522 9.4 151.186 9.224C150.85 9.032 150.402 8.936 149.842 8.936C149.074 8.936 148.514 9.112 148.162 9.464C147.81 9.816 147.634 10.2 147.634 10.616C147.634 11.016 147.794 11.344 148.114 11.6C148.45 11.84 148.882 12.024 149.41 12.152L151.162 12.56C152.25 12.816 153.146 13.24 153.85 13.832C154.57 14.408 154.93 15.24 154.93 16.328C154.93 17.032 154.746 17.688 154.378 18.296C154.01 18.888 153.482 19.36 152.794 19.712C152.106 20.064 151.266 20.24 150.273 20.24ZM162.461 20.24C161.485 20.24 160.677 20.104 160.037 19.832C159.413 19.56 158.917 19.224 158.549 18.824C158.181 18.408 157.909 18 157.733 17.6C157.557 17.184 157.445 16.84 157.397 16.568C157.349 16.296 157.325 16.16 157.325 16.16H159.629C159.629 16.16 159.653 16.272 159.701 16.496C159.765 16.704 159.885 16.952 160.061 17.24C160.253 17.512 160.541 17.76 160.925 17.984C161.325 18.192 161.853 18.296 162.509 18.296C163.261 18.296 163.845 18.12 164.261 17.768C164.677 17.4 164.885 16.952 164.885 16.424C164.885 15.96 164.717 15.592 164.381 15.32C164.061 15.048 163.597 14.84 162.989 14.696L161.261 14.288C160.621 14.128 160.021 13.912 159.461 13.64C158.901 13.368 158.445 13 158.093 12.536C157.757 12.056 157.589 11.464 157.589 10.76C157.589 9.672 157.997 8.784 158.813 8.096C159.629 7.392 160.693 7.04 162.005 7.04C162.885 7.04 163.613 7.168 164.189 7.424C164.765 7.664 165.221 7.968 165.557 8.336C165.909 8.704 166.165 9.072 166.325 9.44C166.501 9.808 166.613 10.12 166.661 10.376C166.709 10.616 166.733 10.736 166.733 10.736H164.525C164.525 10.736 164.501 10.648 164.453 10.472C164.405 10.28 164.293 10.072 164.117 9.848C163.957 9.608 163.709 9.4 163.373 9.224C163.037 9.032 162.589 8.936 162.029 8.936C161.261 8.936 160.701 9.112 160.349 9.464C159.997 9.816 159.821 10.2 159.821 10.616C159.821 11.016 159.981 11.344 160.301 11.6C160.637 11.84 161.069 12.024 161.597 12.152L163.349 12.56C164.437 12.816 165.333 13.24 166.037 13.832C166.757 14.408 167.117 15.24 167.117 16.328C167.117 17.032 166.933 17.688 166.565 18.296C166.197 18.888 165.669 19.36 164.981 19.712C164.293 20.064 163.453 20.24 162.461 20.24ZM175.782 20.24C174.422 20.24 173.278 19.928 172.35 19.304C171.422 18.664 170.718 17.84 170.238 16.832C169.758 15.824 169.518 14.76 169.518 13.64C169.518 12.504 169.758 11.44 170.238 10.448C170.718 9.44 171.422 8.624 172.35 8C173.278 7.36 174.422 7.04 175.782 7.04C177.142 7.04 178.286 7.36 179.214 8C180.142 8.624 180.846 9.44 181.326 10.448C181.806 11.44 182.046 12.504 182.046 13.64C182.046 14.76 181.806 15.824 181.326 16.832C180.846 17.84 180.142 18.664 179.214 19.304C178.286 19.928 177.142 20.24 175.782 20.24ZM175.782 18.248C176.646 18.248 177.366 18.032 177.942 17.6C178.534 17.152 178.974 16.576 179.262 15.872C179.566 15.168 179.718 14.424 179.718 13.64C179.718 12.84 179.566 12.096 179.262 11.408C178.974 10.704 178.534 10.136 177.942 9.704C177.366 9.256 176.646 9.032 175.782 9.032C174.934 9.032 174.214 9.256 173.622 9.704C173.03 10.136 172.582 10.704 172.278 11.408C171.99 12.096 171.846 12.84 171.846 13.64C171.846 14.424 171.99 15.168 172.278 15.872C172.582 16.576 173.03 17.152 173.622 17.6C174.214 18.032 174.934 18.248 175.782 18.248Z" fill="black"/>
<path d="M124.354 17.168L114.85 12.656V11.264L124.354 6.752V8.84L117.586 11.96L124.354 15.08V17.168ZM184.437 23.624L192.765 0.223999H194.949L186.621 23.624H184.437ZM197.467 17.168V15.08L204.235 11.96L197.467 8.84V6.752L206.971 11.264V12.656L197.467 17.168Z" fill="#2F9387"/>
</svg>
