<svg width="142" height="70" viewBox="0 0 142 70" fill="none" xmlns="http://www.w3.org/2000/svg">
<path d="M12.1944 25.32C10.3384 25.32 8.70638 24.9787 7.29838 24.296C5.89038 23.592 4.71704 22.664 3.77838 21.512C2.86104 20.3387 2.16771 19.0373 1.69838 17.608C1.22904 16.1573 0.994375 14.6747 0.994375 13.16C0.994375 11.6453 1.22904 10.1627 1.69838 8.712C2.16771 7.26133 2.86104 5.96 3.77838 4.808C4.71704 3.63467 5.89038 2.70667 7.29838 2.024C8.70638 1.34133 10.3384 0.999998 12.1944 0.999998C13.7304 0.999998 15.0424 1.20267 16.1304 1.608C17.2397 1.992 18.157 2.49333 18.8824 3.112C19.629 3.73067 20.2264 4.392 20.6744 5.096C21.1437 5.8 21.485 6.46133 21.6984 7.08C21.933 7.69867 22.0824 8.21067 22.1464 8.616C22.2317 9 22.2744 9.192 22.2744 9.192H19.1384C19.1384 9.192 19.0957 9.02133 19.0104 8.68C18.925 8.31733 18.7544 7.88 18.4984 7.368C18.2424 6.83467 17.8584 6.30133 17.3464 5.768C16.8344 5.23467 16.1624 4.79733 15.3304 4.456C14.4984 4.09333 13.4637 3.912 12.2264 3.912C10.8824 3.912 9.70904 4.17867 8.70638 4.712C7.70371 5.224 6.86104 5.928 6.17838 6.824C5.51704 7.69867 5.01571 8.69067 4.67438 9.8C4.35438 10.888 4.19438 12.008 4.19438 13.16C4.19438 14.312 4.35438 15.4427 4.67438 16.552C5.01571 17.64 5.51704 18.632 6.17838 19.528C6.86104 20.4027 7.70371 21.1067 8.70638 21.64C9.70904 22.152 10.8824 22.408 12.2264 22.408C13.4637 22.408 14.4984 22.2267 15.3304 21.864C16.1624 21.5013 16.8344 21.064 17.3464 20.552C17.8584 20.0187 18.2424 19.496 18.4984 18.984C18.7544 18.4507 18.925 18.0027 19.0104 17.64C19.0957 17.2773 19.1384 17.096 19.1384 17.096H22.2744C22.2744 17.096 22.2317 17.2987 22.1464 17.704C22.0824 18.088 21.933 18.6 21.6984 19.24C21.485 19.8587 21.1437 20.52 20.6744 21.224C20.2264 21.9067 19.629 22.568 18.8824 23.208C18.157 23.8267 17.2397 24.3387 16.1304 24.744C15.0424 25.128 13.7304 25.32 12.1944 25.32ZM34.3189 25.32C32.5055 25.32 30.9802 24.904 29.7429 24.072C28.5055 23.2187 27.5669 22.12 26.9269 20.776C26.2869 19.432 25.9669 18.0133 25.9669 16.52C25.9669 15.0053 26.2869 13.5867 26.9269 12.264C27.5669 10.92 28.5055 9.832 29.7429 9C30.9802 8.14667 32.5055 7.72 34.3189 7.72C36.1322 7.72 37.6575 8.14667 38.8949 9C40.1322 9.832 41.0709 10.92 41.7109 12.264C42.3509 13.5867 42.6709 15.0053 42.6709 16.52C42.6709 18.0133 42.3509 19.432 41.7109 20.776C41.0709 22.12 40.1322 23.2187 38.8949 24.072C37.6575 24.904 36.1322 25.32 34.3189 25.32ZM34.3189 22.664C35.4709 22.664 36.4309 22.376 37.1989 21.8C37.9882 21.2027 38.5749 20.4347 38.9589 19.496C39.3642 18.5573 39.5669 17.5653 39.5669 16.52C39.5669 15.4533 39.3642 14.4613 38.9589 13.544C38.5749 12.6053 37.9882 11.848 37.1989 11.272C36.4309 10.6747 35.4709 10.376 34.3189 10.376C33.1882 10.376 32.2282 10.6747 31.4389 11.272C30.6495 11.848 30.0522 12.6053 29.6469 13.544C29.2629 14.4613 29.0709 15.4533 29.0709 16.52C29.0709 17.5653 29.2629 18.5573 29.6469 19.496C30.0522 20.4347 30.6495 21.2027 31.4389 21.8C32.2282 22.376 33.1882 22.664 34.3189 22.664ZM54.0219 25.32C52.7419 25.32 51.6219 25.0747 50.6619 24.584C49.7019 24.072 48.9019 23.4 48.2619 22.568C47.6219 21.7147 47.1419 20.7653 46.8219 19.72C46.5019 18.6747 46.3419 17.608 46.3419 16.52C46.3419 15.432 46.5019 14.3653 46.8219 13.32C47.1419 12.2747 47.6219 11.336 48.2619 10.504C48.9019 9.65067 49.7019 8.97867 50.6619 8.488C51.6219 7.976 52.7419 7.72 54.0219 7.72C55.0885 7.72 55.9845 7.89067 56.7099 8.232C57.4352 8.57333 58.0219 8.97867 58.4699 9.448C58.9179 9.896 59.2592 10.3227 59.4939 10.728H59.6859V0.679998H62.7259V25H59.6859V22.312H59.4939C59.2592 22.7173 58.9179 23.1547 58.4699 23.624C58.0219 24.0933 57.4352 24.4987 56.7099 24.84C55.9845 25.16 55.0885 25.32 54.0219 25.32ZM54.5339 22.728C55.6645 22.728 56.6032 22.4293 57.3499 21.832C58.1179 21.2133 58.6832 20.4347 59.0459 19.496C59.4299 18.536 59.6219 17.544 59.6219 16.52C59.6219 15.4747 59.4299 14.4827 59.0459 13.544C58.6832 12.6053 58.1179 11.8373 57.3499 11.24C56.6032 10.6213 55.6645 10.312 54.5339 10.312C53.4032 10.312 52.4539 10.6213 51.6859 11.24C50.9179 11.8373 50.3419 12.6053 49.9579 13.544C49.5952 14.4827 49.4139 15.4747 49.4139 16.52C49.4139 17.544 49.5952 18.536 49.9579 19.496C50.3419 20.4347 50.9179 21.2133 51.6859 21.832C52.4539 22.4293 53.4032 22.728 54.5339 22.728ZM75.2489 25.32C73.8622 25.32 72.6569 25.0747 71.6329 24.584C70.6302 24.072 69.7982 23.3893 69.1369 22.536C68.4969 21.6827 68.0169 20.744 67.6969 19.72C67.3769 18.6747 67.2169 17.608 67.2169 16.52C67.2169 15.4533 67.3662 14.3973 67.6649 13.352C67.9849 12.3067 68.4649 11.3573 69.1049 10.504C69.7662 9.65067 70.5875 8.97867 71.5689 8.488C72.5715 7.976 73.7555 7.72 75.1209 7.72C76.5715 7.72 77.8515 8.05067 78.9609 8.712C80.0702 9.37333 80.9449 10.3547 81.5849 11.656C82.2249 12.9573 82.5449 14.5893 82.5449 16.552V17.448H70.2889C70.3529 18.408 70.5769 19.2933 70.9609 20.104C71.3662 20.8933 71.9315 21.5333 72.6569 22.024C73.3822 22.4933 74.2462 22.728 75.2489 22.728C76.1235 22.728 76.8275 22.5893 77.3609 22.312C77.9155 22.0133 78.3529 21.672 78.6729 21.288C78.9929 20.904 79.2062 20.5733 79.3129 20.296C79.4409 19.9973 79.5049 19.848 79.5049 19.848H82.3529C82.3529 19.848 82.2995 20.04 82.1929 20.424C82.0862 20.7867 81.8942 21.2347 81.6169 21.768C81.3395 22.3013 80.9342 22.8453 80.4009 23.4C79.8675 23.9333 79.1849 24.392 78.3529 24.776C77.5209 25.1387 76.4862 25.32 75.2489 25.32ZM70.3209 15.08H79.5689C79.5262 13.9707 79.2915 13.0747 78.8649 12.392C78.4382 11.688 77.8942 11.1653 77.2329 10.824C76.5715 10.4827 75.8675 10.312 75.1209 10.312C73.7769 10.312 72.6782 10.7493 71.8249 11.624C70.9715 12.4773 70.4702 13.6293 70.3209 15.08ZM101.268 25.32C99.5188 25.32 98.1961 24.872 97.3001 23.976C96.4255 23.08 95.9881 21.8213 95.9881 20.2V10.536H92.9481V8.04H95.9881V3.784H99.0281V8.04H103.156V10.536H99.0281V20.2C99.0281 21.0533 99.2628 21.6827 99.7321 22.088C100.201 22.472 100.884 22.664 101.78 22.664C102.249 22.664 102.697 22.632 103.124 22.568C103.551 22.504 103.764 22.472 103.764 22.472V25.064C103.764 25.064 103.519 25.1067 103.028 25.192C102.537 25.2773 101.951 25.32 101.268 25.32ZM115.163 25.32C113.349 25.32 111.824 24.904 110.587 24.072C109.349 23.2187 108.411 22.12 107.771 20.776C107.131 19.432 106.811 18.0133 106.811 16.52C106.811 15.0053 107.131 13.5867 107.771 12.264C108.411 10.92 109.349 9.832 110.587 9C111.824 8.14667 113.349 7.72 115.163 7.72C116.976 7.72 118.501 8.14667 119.739 9C120.976 9.832 121.915 10.92 122.555 12.264C123.195 13.5867 123.515 15.0053 123.515 16.52C123.515 18.0133 123.195 19.432 122.555 20.776C121.915 22.12 120.976 23.2187 119.739 24.072C118.501 24.904 116.976 25.32 115.163 25.32ZM115.163 22.664C116.315 22.664 117.275 22.376 118.043 21.8C118.832 21.2027 119.419 20.4347 119.803 19.496C120.208 18.5573 120.411 17.5653 120.411 16.52C120.411 15.4533 120.208 14.4613 119.803 13.544C119.419 12.6053 118.832 11.848 118.043 11.272C117.275 10.6747 116.315 10.376 115.163 10.376C114.032 10.376 113.072 10.6747 112.283 11.272C111.493 11.848 110.896 12.6053 110.491 13.544C110.107 14.4613 109.915 15.4533 109.915 16.52C109.915 17.5653 110.107 18.5573 110.491 19.496C110.896 20.4347 111.493 21.2027 112.283 21.8C113.072 22.376 114.032 22.664 115.163 22.664ZM127.662 25V8.04H130.702V10.504H130.894C131.043 10.248 131.289 9.896 131.63 9.448C131.993 9 132.505 8.60533 133.166 8.264C133.827 7.90133 134.659 7.72 135.662 7.72C136.899 7.72 137.955 8.008 138.83 8.584C139.705 9.13867 140.366 9.896 140.814 10.856C141.283 11.816 141.518 12.8933 141.518 14.088V25H138.478V14.28C138.478 13.1493 138.158 12.2107 137.518 11.464C136.899 10.7173 135.993 10.344 134.798 10.344C133.838 10.344 133.059 10.5893 132.462 11.08C131.865 11.5493 131.417 12.1787 131.118 12.968C130.841 13.736 130.702 14.5573 130.702 15.432V25H127.662ZM26.7525 65L35.1045 41.32H39.0405L47.4245 65H44.0965L42.1125 59.336H32.0645L30.0805 65H26.7525ZM33.0245 56.52H41.1525L37.0885 44.904L33.0245 56.52ZM57.323 65.32C56.0217 65.32 54.9443 65.1387 54.091 64.776C53.259 64.4133 52.5977 63.9653 52.107 63.432C51.6163 62.8773 51.2537 62.3333 51.019 61.8C50.7843 61.2453 50.635 60.7867 50.571 60.424C50.507 60.0613 50.475 59.88 50.475 59.88H53.547C53.547 59.88 53.579 60.0293 53.643 60.328C53.7283 60.6053 53.8883 60.936 54.123 61.32C54.379 61.6827 54.763 62.0133 55.275 62.312C55.8083 62.5893 56.5123 62.728 57.387 62.728C58.3897 62.728 59.1683 62.4933 59.723 62.024C60.2777 61.5333 60.555 60.936 60.555 60.232C60.555 59.6133 60.331 59.1227 59.883 58.76C59.4563 58.3973 58.8377 58.12 58.027 57.928L55.723 57.384C54.8697 57.1707 54.0697 56.8827 53.323 56.52C52.5763 56.1573 51.9683 55.6667 51.499 55.048C51.051 54.408 50.827 53.6187 50.827 52.68C50.827 51.2293 51.371 50.0453 52.459 49.128C53.547 48.1893 54.9657 47.72 56.715 47.72C57.8883 47.72 58.859 47.8907 59.627 48.232C60.395 48.552 61.003 48.9573 61.451 49.448C61.9203 49.9387 62.2617 50.4293 62.475 50.92C62.7097 51.4107 62.859 51.8267 62.923 52.168C62.987 52.488 63.019 52.648 63.019 52.648H60.075C60.075 52.648 60.043 52.5307 59.979 52.296C59.915 52.04 59.7657 51.7627 59.531 51.464C59.3177 51.144 58.987 50.8667 58.539 50.632C58.091 50.376 57.4937 50.248 56.747 50.248C55.723 50.248 54.9763 50.4827 54.507 50.952C54.0377 51.4213 53.803 51.9333 53.803 52.488C53.803 53.0213 54.0163 53.4587 54.443 53.8C54.891 54.12 55.467 54.3653 56.171 54.536L58.507 55.08C59.9577 55.4213 61.1523 55.9867 62.091 56.776C63.051 57.544 63.531 58.6533 63.531 60.104C63.531 61.0427 63.2857 61.9173 62.795 62.728C62.3043 63.5173 61.6003 64.1467 60.683 64.616C59.7657 65.0853 58.6457 65.32 57.323 65.32ZM73.573 65.32C72.2717 65.32 71.1943 65.1387 70.341 64.776C69.509 64.4133 68.8477 63.9653 68.357 63.432C67.8663 62.8773 67.5037 62.3333 67.269 61.8C67.0343 61.2453 66.885 60.7867 66.821 60.424C66.757 60.0613 66.725 59.88 66.725 59.88H69.797C69.797 59.88 69.829 60.0293 69.893 60.328C69.9783 60.6053 70.1383 60.936 70.373 61.32C70.629 61.6827 71.013 62.0133 71.525 62.312C72.0583 62.5893 72.7623 62.728 73.637 62.728C74.6397 62.728 75.4183 62.4933 75.973 62.024C76.5277 61.5333 76.805 60.936 76.805 60.232C76.805 59.6133 76.581 59.1227 76.133 58.76C75.7063 58.3973 75.0877 58.12 74.277 57.928L71.973 57.384C71.1197 57.1707 70.3197 56.8827 69.573 56.52C68.8263 56.1573 68.2183 55.6667 67.749 55.048C67.301 54.408 67.077 53.6187 67.077 52.68C67.077 51.2293 67.621 50.0453 68.709 49.128C69.797 48.1893 71.2157 47.72 72.965 47.72C74.1383 47.72 75.109 47.8907 75.877 48.232C76.645 48.552 77.253 48.9573 77.701 49.448C78.1703 49.9387 78.5117 50.4293 78.725 50.92C78.9597 51.4107 79.109 51.8267 79.173 52.168C79.237 52.488 79.269 52.648 79.269 52.648H76.325C76.325 52.648 76.293 52.5307 76.229 52.296C76.165 52.04 76.0157 51.7627 75.781 51.464C75.5677 51.144 75.237 50.8667 74.789 50.632C74.341 50.376 73.7437 50.248 72.997 50.248C71.973 50.248 71.2263 50.4827 70.757 50.952C70.2877 51.4213 70.053 51.9333 70.053 52.488C70.053 53.0213 70.2663 53.4587 70.693 53.8C71.141 54.12 71.717 54.3653 72.421 54.536L74.757 55.08C76.2077 55.4213 77.4023 55.9867 78.341 56.776C79.301 57.544 79.781 58.6533 79.781 60.104C79.781 61.0427 79.5357 61.9173 79.045 62.728C78.5543 63.5173 77.8503 64.1467 76.933 64.616C76.0157 65.0853 74.8957 65.32 73.573 65.32ZM91.3345 65.32C89.5212 65.32 87.9958 64.904 86.7585 64.072C85.5212 63.2187 84.5825 62.12 83.9425 60.776C83.3025 59.432 82.9825 58.0133 82.9825 56.52C82.9825 55.0053 83.3025 53.5867 83.9425 52.264C84.5825 50.92 85.5212 49.832 86.7585 49C87.9958 48.1467 89.5212 47.72 91.3345 47.72C93.1478 47.72 94.6732 48.1467 95.9105 49C97.1478 49.832 98.0865 50.92 98.7265 52.264C99.3665 53.5867 99.6865 55.0053 99.6865 56.52C99.6865 58.0133 99.3665 59.432 98.7265 60.776C98.0865 62.12 97.1478 63.2187 95.9105 64.072C94.6732 64.904 93.1478 65.32 91.3345 65.32ZM91.3345 62.664C92.4865 62.664 93.4465 62.376 94.2145 61.8C95.0038 61.2027 95.5905 60.4347 95.9745 59.496C96.3798 58.5573 96.5825 57.5653 96.5825 56.52C96.5825 55.4533 96.3798 54.4613 95.9745 53.544C95.5905 52.6053 95.0038 51.848 94.2145 51.272C93.4465 50.6747 92.4865 50.376 91.3345 50.376C90.2038 50.376 89.2438 50.6747 88.4545 51.272C87.6652 51.848 87.0678 52.6053 86.6625 53.544C86.2785 54.4613 86.0865 55.4533 86.0865 56.52C86.0865 57.5653 86.2785 58.5573 86.6625 59.496C87.0678 60.4347 87.6652 61.2027 88.4545 61.8C89.2438 62.376 90.2038 62.664 91.3345 62.664Z" fill="white"/>
<path d="M22.7633 61.224L10.0913 55.208V53.352L22.7633 47.336V50.12L13.7393 54.28L22.7633 58.44V61.224ZM102.874 69.832L113.978 38.632H116.89L105.786 69.832H102.874ZM120.248 61.224V58.44L129.272 54.28L120.248 50.12V47.336L132.92 53.352V55.208L120.248 61.224Z" fill="#D9BA9E"/>
</svg>
