<svg width="100" height="100" viewBox="0 0 100 100" fill="none" xmlns="http://www.w3.org/2000/svg">
<g clip-path="url(#clip0_124_69)">
<path d="M51.7249 20.8333H87.4999C88.605 20.8333 89.6648 21.2723 90.4462 22.0537C91.2276 22.8351 91.6666 23.8949 91.6666 25V83.3333C91.6666 84.4384 91.2276 85.4982 90.4462 86.2796C89.6648 87.061 88.605 87.5 87.4999 87.5H12.4999C11.3949 87.5 10.335 87.061 9.55364 86.2796C8.77224 85.4982 8.33325 84.4384 8.33325 83.3333V16.6667C8.33325 15.5616 8.77224 14.5018 9.55364 13.7204C10.335 12.939 11.3949 12.5 12.4999 12.5H43.3916L51.7249 20.8333ZM83.3333 45.8333H16.6666V79.1667H83.3333V45.8333ZM83.3333 37.5V29.1667H48.2749L39.9416 20.8333H16.6666V37.5H83.3333Z" fill="#B3B3B3"/>
</g>
<defs>
<clipPath id="clip0_124_69">
<rect width="100" height="100" fill="#B3B3B3"/>
</clipPath>
</defs>
</svg>
