<svg id="team-line" xmlns="http://www.w3.org/2000/svg" width="24" height="24" viewBox="0 0 24 24">
  <path id="Path_3" data-name="Path 3" d="M0,0H24V24H0Z" fill="none"/>
  <path id="Path_4" data-name="Path 4" d="M12,11a5,5,0,0,1,5,5v6H15V16a3,3,0,0,0-2.824-3L12,13a3,3,0,0,0-3,2.824L9,16v6H7V16a5,5,0,0,1,5-5ZM5.5,14a3.542,3.542,0,0,1,.81.094,5.947,5.947,0,0,0-.3,1.575L6,16v.086a1.492,1.492,0,0,0-.356-.08L5.5,16a1.5,1.5,0,0,0-1.493,1.356L4,17.5V22H2V17.5A3.5,3.5,0,0,1,5.5,14Zm13,0A3.5,3.5,0,0,1,22,17.5V22H20V17.5a1.5,1.5,0,0,0-1.356-1.493L18.5,16a1.509,1.509,0,0,0-.5.085V16a5.964,5.964,0,0,0-.309-1.9A3.42,3.42,0,0,1,18.5,14ZM5.5,8A2.5,2.5,0,1,1,3,10.5,2.5,2.5,0,0,1,5.5,8Zm13,0A2.5,2.5,0,1,1,16,10.5,2.5,2.5,0,0,1,18.5,8Zm-13,2a.5.5,0,1,0,.5.5A.5.5,0,0,0,5.5,10Zm13,0a.5.5,0,1,0,.5.5A.5.5,0,0,0,18.5,10ZM12,2A4,4,0,1,1,8,6,4,4,0,0,1,12,2Zm0,2a2,2,0,1,0,2,2A2,2,0,0,0,12,4Z" fill="#2f9387"/>
</svg>
